<?xml version="1.0" standalone="no"?>
<!DOCTYPE svg PUBLIC "-//W3C//DTD SVG 20010904//EN"
 "http://www.w3.org/TR/2001/REC-SVG-20010904/DTD/svg10.dtd">
<svg version="1.0" xmlns="http://www.w3.org/2000/svg"
 width="956.000000pt" height="956.000000pt" viewBox="0 0 956.000000 956.000000"
 preserveAspectRatio="xMidYMid meet">
<metadata>
Created by potrace 1.11, written by Peter Selinger 2001-2013
</metadata>
<g transform="translate(0.000000,956.000000) scale(0.100000,-0.100000)"
fill="#000000" stroke="none">
<path d="M4640 9549 c-58 -10 -87 -17 -110 -24 -10 -3 -27 -8 -38 -10 -28 -5
-185 -77 -200 -92 -6 -6 -21 -15 -32 -18 -11 -3 -20 -10 -20 -15 0 -5 -8 -11
-18 -14 -26 -9 -170 -151 -214 -212 -56 -77 -115 -196 -144 -291 -14 -46 -23
-87 -20 -90 2 -3 0 -17 -6 -32 -9 -19 -12 -820 -13 -2954 l-1 -2927 -29 -23
c-153 -118 -305 -294 -401 -466 -27 -47 -49 -88 -49 -91 -1 -3 -6 -14 -12 -25
-13 -23 -62 -143 -69 -165 -35 -130 -55 -212 -59 -240 -26 -193 -26 -342 0
-545 5 -39 44 -194 55 -220 5 -11 12 -31 16 -45 10 -38 111 -259 123 -270 4
-3 12 -17 20 -32 8 -16 18 -28 23 -28 4 0 8 -5 8 -10 0 -6 19 -37 42 -68 150
-204 371 -385 596 -488 63 -29 103 -46 115 -49 4 -2 9 -4 12 -5 3 -1 8 -3 13
-4 4 -1 36 -11 72 -23 66 -22 77 -25 162 -43 116 -24 414 -34 523 -18 96 15
121 19 145 25 14 3 30 7 35 8 55 13 142 38 150 43 5 4 15 7 22 8 20 3 187 76
203 89 8 7 36 23 63 35 26 13 47 27 47 31 0 4 9 10 20 14 56 18 296 236 380
346 96 126 168 254 224 394 39 99 91 284 82 292 -3 3 -1 13 4 23 21 39 31 308
18 445 -4 33 -7 60 -8 60 -1 0 -3 16 -6 35 -5 40 -50 215 -63 245 -5 11 -25
61 -46 110 -20 50 -44 101 -53 115 -9 14 -23 39 -32 55 -21 40 -42 75 -57 94
-7 9 -33 45 -59 80 -58 77 -190 214 -259 267 l-50 39 0 2910 c1 2262 -2 2926
-11 2985 -13 79 -34 153 -59 214 -8 20 -16 39 -17 43 0 5 -12 25 -24 45 -13
21 -24 42 -24 48 0 5 -4 10 -10 10 -5 0 -10 5 -10 11 0 18 -58 89 -133 163
-62 61 -193 155 -221 160 -6 1 -30 12 -53 24 -41 21 -161 58 -225 68 -59 10
-272 12 -318 3z m295 -329 c135 -36 239 -104 346 -226 39 -45 105 -174 112
-219 1 -11 7 -27 12 -35 7 -10 10 -1096 11 -3023 l1 -3009 84 -56 c86 -59 238
-200 280 -262 13 -19 34 -46 46 -60 13 -14 23 -30 23 -37 0 -7 5 -13 10 -13 6
0 10 -4 10 -10 0 -5 14 -33 31 -62 17 -29 32 -57 33 -63 1 -5 12 -32 24 -59
12 -27 22 -54 22 -61 0 -6 3 -15 7 -19 4 -3 8 -12 9 -19 1 -7 9 -39 17 -72 27
-105 29 -127 32 -295 2 -129 -2 -185 -16 -255 -30 -143 -38 -175 -49 -190 -4
-5 -11 -21 -15 -35 -12 -42 -107 -230 -116 -230 -5 0 -9 -5 -9 -11 0 -6 -12
-27 -27 -47 -123 -163 -274 -295 -444 -386 -76 -41 -230 -101 -284 -112 -11
-2 -31 -6 -45 -9 -53 -11 -76 -15 -135 -21 -82 -8 -188 -11 -198 -6 -5 2 -32
6 -60 8 -101 8 -164 21 -269 55 -395 130 -702 442 -827 840 -11 36 -23 80 -26
99 -3 18 -8 36 -10 39 -12 20 -27 324 -16 345 2 5 5 21 6 35 5 57 16 119 31
171 8 30 16 60 18 65 30 117 127 300 222 417 92 114 176 191 295 270 l64 43 1
2975 c0 1636 4 2995 8 3020 10 58 24 107 44 150 9 19 15 38 14 43 -1 4 2 7 8
7 6 0 10 7 10 15 0 8 5 15 10 15 6 0 10 5 10 11 0 7 19 35 43 64 84 104 229
192 358 219 77 16 225 14 294 -4z"/>
<path d="M4730 7636 c-114 -25 -203 -96 -242 -196 l-21 -55 -1 -2450 -1 -2450
-60 -26 c-185 -78 -326 -195 -432 -356 -29 -44 -53 -84 -53 -87 0 -3 -11 -29
-24 -58 -13 -29 -29 -71 -35 -93 -9 -37 -13 -54 -28 -130 -3 -16 -6 -77 -6
-135 -1 -97 3 -143 18 -210 3 -14 8 -38 10 -54 3 -16 11 -38 17 -50 6 -11 11
-22 10 -23 -1 -2 -1 -5 -1 -8 1 -3 2 -8 3 -12 2 -5 14 -34 29 -66 90 -199 267
-370 473 -461 134 -58 242 -80 399 -79 118 0 158 5 245 28 36 9 70 18 75 20
50 12 208 94 259 135 65 52 125 109 151 142 16 21 33 38 37 38 4 0 8 4 8 9 0
6 15 32 32 58 62 91 120 233 133 328 3 17 8 50 13 75 13 69 7 232 -12 325 -3
11 -5 20 -6 20 -1 0 -3 10 -6 22 -4 21 -16 56 -45 133 -8 19 -18 38 -24 42 -5
4 -6 8 -2 8 4 0 -6 20 -23 44 -16 25 -30 48 -30 53 -1 14 -109 133 -171 188
-43 38 -144 105 -158 105 -6 0 -11 4 -11 10 0 5 -3 9 -7 8 -8 -1 -94 34 -123
51 -13 7 -15 290 -15 2452 -1 1344 -4 2460 -9 2479 -30 125 -140 219 -262 225
-17 1 -35 4 -40 7 -5 3 -34 0 -64 -6z"/>
<path d="M1835 6394 c-41 -19 -181 -154 -705 -679 -812 -813 -791 -792 -817
-840 -28 -52 -27 -143 2 -198 30 -56 1460 -1493 1511 -1518 57 -27 121 -30
180 -7 56 21 81 40 109 83 21 33 21 32 33 91 12 57 -6 154 -29 154 -6 0 -8 4
-5 8 3 4 -281 296 -630 647 l-634 639 23 24 c25 28 532 540 956 967 160 160
288 297 300 321 29 56 30 134 3 205 -12 30 -66 84 -107 105 -51 26 -133 26
-190 -2z"/>
<path d="M7609 6409 c-59 -9 -85 -23 -131 -69 -77 -78 -83 -209 -13 -295 27
-33 473 -485 1122 -1137 l136 -136 -481 -484 c-265 -265 -548 -551 -631 -634
-82 -83 -160 -170 -172 -193 -27 -53 -29 -142 -4 -195 38 -79 106 -126 192
-131 108 -7 114 -2 440 326 164 164 299 303 301 309 2 5 10 10 17 10 7 0 15 4
17 9 2 6 191 200 422 432 287 290 424 434 436 462 22 49 21 135 -3 188 -10 23
-276 297 -739 760 -398 399 -732 732 -743 741 -33 27 -115 45 -166 37z"/>
</g>
</svg>
